<svg width="80" height="32" viewBox="0 0 80 32" fill="none" xmlns="http://www.w3.org/2000/svg">
<g clip-path="url(#clip0_103_238)">
<mask id="mask0_103_238" style="mask-type:luminance" maskUnits="userSpaceOnUse" x="0" y="0" width="80" height="32">
<path d="M80 0H0V32H80V0Z" fill="white"/>
</mask>
<g mask="url(#mask0_103_238)">
<path d="M58.0744 31.9999C54.8535 31.9999 52.2765 30.4043 51.1153 27.9373C50.9495 28.2239 50.7837 28.5041 50.6179 28.7753L50.5931 28.8155C49.6696 30.3144 48.714 31.8646 46.3183 31.8646C43.975 31.8646 43.0023 30.4175 42.1805 29.0756C41.4803 30.5899 39.7748 31.8249 37.3315 31.8249C36.2936 31.8249 35.3386 31.5828 34.5279 31.1307C33.5583 31.6684 32.4563 31.9484 31.3357 31.9418C29.6777 31.9418 28.2563 31.3602 27.2892 30.3895C25.9246 31.4183 24.1086 31.9999 22.1677 31.9999C20.3107 31.9999 18.6676 31.4712 17.3866 30.5476C16.9711 30.9486 16.4671 31.2556 15.9116 31.4464C15.1025 31.7335 14.1066 31.8694 12.7769 31.8694C11.4605 31.8694 10.4839 31.7345 9.70304 31.4464C9.58253 31.4017 9.46611 31.3526 9.35373 31.2994C9.2432 31.3523 9.12698 31.4013 9.00499 31.4464C8.22413 31.7361 7.24755 31.8694 5.93112 31.8694C4.60143 31.8694 3.60554 31.7356 2.79645 31.4464C1.2982 30.914 0.403993 29.7661 0.403993 28.3762C0.391793 27.6057 0.696218 26.8615 1.25177 26.3036V19.564C0.736691 19.1442 0 18.3808 0 17.1319C0 16.0592 0.547132 15.1228 1.54136 14.4968C3.1087 13.4785 5.66198 13.019 6.98118 13.019C9.06912 13.019 9.91526 14.1695 10.2341 14.8553C10.611 15.6626 10.611 16.5276 10.611 17.4434C11.0825 17.3409 11.5645 17.2894 12.0479 17.29C12.4318 17.289 12.8148 17.323 13.1919 17.3916C12.4066 16.4372 11.9496 15.1847 11.9496 14.0004C11.9478 13.2684 12.1693 12.5518 12.5868 11.9384C12.2905 11.3118 12.1418 10.6306 12.1513 9.94302C12.1513 6.67501 15.0743 4.21065 18.949 4.21065C19.7012 4.20918 20.4504 4.30323 21.1768 4.49034C21.6202 4.27949 22.1091 4.17085 22.6043 4.17311C24.0252 4.17311 25.2344 5.04073 25.9837 6.20814C27.55 4.94504 29.7352 4.21171 32.2979 4.21171C34.9191 4.21171 37.1375 5.17609 38.5816 6.76806C40.0279 5.1819 42.1849 4.21171 44.6774 4.21171C46.1287 4.21171 47.4407 4.54163 48.5084 5.11581C48.4627 4.88593 48.4398 4.65244 48.4399 4.41843C48.4399 1.96044 50.7418 0.309258 54.1688 0.309258C57.178 0.309258 58.5248 2.15976 58.5248 3.99335C58.5325 4.72044 58.2916 5.43002 57.839 6.0141C57.8727 6.07808 57.9025 6.13993 57.9285 6.19863C57.9328 6.20706 57.9367 6.21571 57.9401 6.22453C58.3992 5.89833 58.892 5.61789 59.4107 5.38758C60.9775 4.67698 62.8869 4.26987 64.6496 4.26987C65.9213 4.26987 67.0323 4.49669 67.959 4.92283C67.8842 4.65781 67.847 4.38426 67.849 4.10967C67.849 3.03637 68.3955 2.10055 69.3894 1.47455C70.9574 0.457827 73.5104 0.000488281 74.8301 0.000488281C76.9178 0.000488281 77.7638 1.15097 78.0826 1.83672C78.4589 2.64565 78.4589 3.51645 78.4589 4.438V13.2802C79.0144 13.838 79.319 14.5823 79.3069 15.3528C79.3069 16.6841 78.4858 17.7934 77.0995 18.3522C78.3904 19.3393 79.1501 20.9567 79.1501 22.9642V26.2951C79.705 26.8545 80.0096 27.5995 79.9981 28.3709C79.9981 29.7609 79.1034 30.9087 77.6051 31.4411C76.7962 31.7282 75.8003 31.8641 74.471 31.8641C73.1546 31.8641 72.1779 31.7292 71.3971 31.4411C71.2768 31.3963 71.1603 31.3473 71.0483 31.2941C70.9376 31.347 70.8211 31.396 70.6989 31.4411C69.9187 31.7308 68.9414 31.8641 67.625 31.8641C66.2957 31.8641 65.2992 31.7303 64.4909 31.4411C63.9279 31.2486 63.4177 30.9368 62.9986 30.5291C61.6606 31.4712 59.9242 31.9999 58.0744 31.9999Z" fill="#A7A7A7"/>
<path d="M24.8285 13.3048C24.8285 15.3721 22.8495 16.8599 20.2045 16.8599C19.1947 16.8599 18.1851 16.6669 17.3771 16.2418C17.2356 16.6473 16.8924 16.8985 16.3873 16.8985C15.0952 16.8985 14.1462 15.2759 14.1462 14.0006C14.1462 13.1314 14.6508 12.7063 15.1963 12.7063C15.7617 12.7063 16.1049 13.0732 16.4884 13.4993C17.4981 14.6393 18.4072 15.0252 19.0732 15.0252C19.659 15.0252 19.9215 14.7551 19.9215 14.4267C19.9215 14.0403 19.5783 13.8277 18.3061 13.3836C16.206 12.6492 14.348 11.8958 14.348 9.94691C14.348 7.80247 16.327 6.31466 18.9522 6.31466C19.8811 6.31466 20.8909 6.50766 21.6784 6.9327C21.8199 6.52718 22.1631 6.27607 22.6074 6.27607C23.6774 6.27607 24.6064 7.74431 24.6064 8.86675C24.6064 9.77511 23.9985 10.0648 23.516 10.0648C23.0115 10.0648 22.6682 9.75554 22.2239 9.31143C21.517 8.51833 20.6483 8.15196 20.0227 8.15196C19.4573 8.15196 19.1937 8.40307 19.1937 8.7124C19.1937 9.07933 19.4965 9.29398 20.7483 9.65878C22.466 10.1558 24.8285 11.0255 24.8285 13.3048ZM25.5763 11.7018C25.5763 8.51413 28.2843 6.31146 32.3011 6.31146C35.8552 6.31146 38.1775 8.47554 38.1775 11.5083C38.1775 14.7154 35.4512 16.8789 31.4931 16.8789C27.8986 16.8789 25.5763 14.7344 25.5763 11.7018ZM33.3511 13.8462C33.3511 11.9915 32.321 8.22437 31.1698 8.22437C30.6652 8.22437 30.4027 8.64733 30.4027 9.36376C30.4027 11.2381 31.4323 14.9682 32.6039 14.9682C33.0886 14.9666 33.3511 14.5611 33.3511 13.8462ZM38.8644 11.7985C38.8644 8.61031 41.3481 6.31146 44.6806 6.31146C47.2853 6.31146 49.0825 7.70252 49.0825 9.36376C49.0825 10.5798 48.1535 11.2767 47.0836 11.2767C45.8312 11.2767 45.3869 10.2911 45.084 9.38333C44.9227 8.88106 44.721 8.20479 44.1755 8.20479C43.5676 8.20479 43.3272 9.0164 43.3272 9.88561C43.3272 11.7018 44.3976 12.996 46.0739 12.996C46.7603 12.996 47.2654 12.7846 47.8307 12.4937C48.1131 12.3388 48.3757 12.2231 48.6597 12.2231C49.1019 12.2231 49.4268 12.5128 49.4268 13.17C49.4268 13.788 49.124 14.5219 48.5586 15.1595C47.7097 16.1065 46.2573 16.8789 44.2965 16.8789C41.1259 16.8789 38.8644 14.8312 38.8644 11.7985ZM50.2746 15.353C50.2746 14.8508 50.5775 14.6572 50.8598 14.4447C51.0417 14.3099 51.1224 14.1746 51.1224 13.7495V10.0786C51.1224 9.63444 50.9411 9.4415 50.7593 9.30616C50.4763 9.09464 50.2138 8.84247 50.2138 8.41737C50.2138 8.06945 50.3752 7.79927 50.7593 7.54817C51.7889 6.85239 53.7884 6.44686 54.7384 6.44686C56.0714 6.44686 56.0913 7.21926 56.0913 8.74572V13.7495C56.0913 14.1724 56.172 14.3099 56.3539 14.4447C56.6368 14.6562 56.9396 14.8508 56.9396 15.353C56.9396 16.4348 55.4856 16.7441 53.6077 16.7441C51.7297 16.7441 50.2746 16.4348 50.2746 15.353ZM50.6377 4.41815C50.6377 2.91131 52.5565 2.40903 54.1747 2.40903C55.6669 2.40903 56.3356 3.04666 56.3356 3.99517C56.3356 5.34763 54.2957 5.9271 52.7986 5.9271C51.3247 5.92499 50.6377 5.30692 50.6377 4.41815ZM69.823 14.4838C69.823 15.5074 68.7523 16.7044 66.8137 16.7044C65.542 16.7044 64.6127 16.1826 64.0675 15.2769C63.3604 16.2233 62.2093 16.8223 60.816 16.8223C59.1199 16.8223 57.6051 15.914 57.6051 14.0016C57.6051 11.8762 59.5034 10.9102 61.9064 10.9102C62.5383 10.9077 63.1686 10.9726 63.7854 11.1037V9.78886C63.7854 8.76523 63.7252 8.22437 63.2405 8.22437C62.8365 8.22437 62.574 8.70707 62.2911 9.11259C61.8671 9.73119 61.2006 10.4075 59.8881 10.4075C58.8585 10.4075 58.313 9.84702 58.313 9.28658C58.313 7.83786 61.645 6.36912 64.6543 6.36912C67.4006 6.36912 68.8342 7.64435 68.8342 9.96435V13.0167C68.8342 13.6929 69.0159 14.0212 69.6419 14.2147C69.8006 14.2713 69.823 14.3289 69.823 14.4838ZM63.9462 13.17V12.4742C63.861 12.3807 63.7552 12.3062 63.6365 12.2561C63.5178 12.206 63.389 12.1816 63.2593 12.1845C62.7746 12.1845 62.4519 12.6291 62.4519 13.4005C62.4519 14.2311 62.8354 14.56 63.199 14.56C63.666 14.5611 63.9462 14.2882 63.9462 13.17ZM70.3887 15.353C70.3887 14.8508 70.7113 14.6572 71.0146 14.4447C71.1958 14.3099 71.2969 14.1746 71.2969 13.7495V6.13595C71.2969 5.55436 71.0147 5.30534 70.7721 5.13139C70.4086 4.86121 70.0457 4.61008 70.0457 4.1078C70.0457 3.7599 70.207 3.47016 70.6108 3.21849C71.7014 2.5042 73.8217 2.09814 74.8316 2.09814C76.2447 2.09814 76.2652 2.89122 76.2652 4.43613V13.7495C76.2652 14.1724 76.3458 14.3099 76.5276 14.4447C76.8105 14.6562 77.1132 14.8508 77.1132 15.353C77.1132 16.4348 75.6591 16.7441 73.7814 16.7441C71.8626 16.7441 70.3887 16.4348 70.3887 15.353ZM16.1087 28.3738C16.1087 29.456 14.6547 29.7648 12.7768 29.7648C10.8988 29.7648 9.62662 29.456 9.62662 28.4319C9.62662 27.9296 9.90899 27.7361 10.0687 27.5431C10.2898 27.2724 10.2898 27.0022 10.2898 26.7707V24.935C10.2898 23.0226 9.98636 22.4818 9.34035 22.4818C8.73241 22.4818 8.43174 22.9644 8.41132 24.5871V26.7707C8.41132 26.9821 8.41132 27.2344 8.63238 27.5431C8.77388 27.7361 9.07449 27.9296 9.07449 28.4319C9.07449 29.456 7.80339 29.7648 5.92435 29.7648C4.04532 29.7648 2.59735 29.456 2.59735 28.3738C2.59735 27.8714 2.90021 27.6785 3.18262 27.4659C3.36444 27.3306 3.44513 27.1958 3.44513 26.7707V19.1571C3.44513 18.5756 3.16272 18.326 2.9201 18.1526C2.55701 17.8819 2.19336 17.6307 2.19336 17.1285C2.19336 16.7806 2.35474 16.4908 2.75873 16.2397C3.84913 15.5249 5.96967 15.1194 6.97939 15.1194C8.39308 15.1194 8.41299 15.9125 8.41299 17.4568V21.5718C9.06348 20.3949 10.2522 19.3903 12.0478 19.3903C14.1081 19.3903 15.2587 20.7428 15.2587 22.9644V26.7712C15.2587 27.1942 15.3395 27.3311 15.5213 27.4665C15.8059 27.6785 16.1087 27.8714 16.1087 28.3738ZM27.4382 26.2488C27.4382 26.7897 27.1956 27.4078 26.7314 27.9682C25.9024 29.0114 24.3284 29.9002 22.1675 29.9002C18.977 29.9002 16.7354 27.7943 16.7354 24.8578C16.7354 21.6897 19.2777 19.3903 22.5715 19.3903C25.7217 19.3903 27.3796 21.3609 27.3796 22.8873C27.3796 23.9304 26.6932 24.4908 25.4006 24.4908H21.1578C21.5215 25.4954 22.4289 26.077 23.7625 26.077C24.5915 26.077 25.2171 25.9031 25.8228 25.5747C26.1052 25.4204 26.3882 25.3045 26.6706 25.3045C27.1149 25.3025 27.4382 25.5921 27.4382 26.2488ZM20.9561 23.3124L21.8243 23.2542C23.0761 23.177 23.5812 22.7329 23.5812 22.1143C23.5812 21.593 23.2176 21.1869 22.5715 21.1869C21.6221 21.1869 20.9561 22.0952 20.9561 23.3124ZM40.3439 27.5061C40.3439 28.5303 39.2734 29.7267 37.3347 29.7267C36.0635 29.7267 35.1334 29.2054 34.5885 28.2992C33.8817 29.2461 32.7305 29.8446 31.3372 29.8446C29.6411 29.8446 28.1263 28.9368 28.1263 27.0244C28.1263 24.899 30.0246 23.933 32.4276 23.933C33.0595 23.9303 33.6898 23.995 34.3067 24.126V22.81C34.3067 21.786 34.2464 21.245 33.7617 21.245C33.3578 21.245 33.0952 21.7283 32.8123 22.1338C32.3856 22.7519 31.7224 23.4281 30.4071 23.4281C29.377 23.4281 28.832 22.8677 28.832 22.3078C28.832 20.8586 32.164 19.3903 35.1727 19.3903C37.9194 19.3903 39.353 20.6656 39.353 22.9856V26.0363C39.353 26.7125 39.5348 27.0409 40.161 27.2344C40.3224 27.2946 40.3439 27.3501 40.3439 27.5061ZM34.4664 26.1907V25.497C34.3811 25.4035 34.2753 25.329 34.1566 25.2789C34.0379 25.2289 33.9091 25.2044 33.7794 25.2073C33.2947 25.2073 32.972 25.6514 32.972 26.4233C32.972 27.2539 33.3555 27.5822 33.7192 27.5822C34.1834 27.5817 34.4664 27.3116 34.4664 26.1907ZM53.0047 20.7238C53.0047 21.245 52.7422 21.5734 52.116 21.9213C51.6739 22.1724 51.3285 22.9454 50.7631 24.0272C50.1552 25.1861 49.4307 26.5581 48.7238 27.7171C47.855 29.1277 47.4715 29.7648 46.3203 29.7648C45.1691 29.7648 44.7652 29.1452 43.9782 27.8524C43.4128 26.925 42.3019 24.935 41.657 23.6227C40.9501 22.1952 40.9098 22.0963 40.6473 21.8837C40.3035 21.613 39.9603 21.3815 39.9603 20.8596C39.9571 20.1041 40.786 19.4696 43.7151 19.4696C46.2391 19.4696 47.4511 19.9724 47.4511 20.8607C47.4511 21.3439 47.067 21.6337 46.8045 21.8076C46.542 21.9815 46.5419 22.2517 46.6232 22.6187C46.7641 23.2563 47.3295 24.512 47.9153 25.6133C48.4608 24.4734 48.9654 23.2177 49.0665 22.6187C49.1676 22.0588 49.0057 21.9044 48.6625 21.6527C48.2989 21.3825 48.0767 21.0928 48.0767 20.7645C48.0767 20.03 48.7836 19.4696 50.6614 19.4696C52.2979 19.4696 53.0047 19.9507 53.0047 20.7238ZM63.345 26.2488C63.345 26.7897 63.1029 27.4078 62.6381 27.9682C61.8092 29.0114 60.2351 29.9002 58.0742 29.9002C54.8838 29.9002 52.6422 27.7943 52.6422 24.8578C52.6422 21.6897 55.1844 19.3903 58.4783 19.3903C61.6284 19.3903 63.2864 21.3609 63.2864 22.8873C63.2864 23.9304 62.5994 24.4908 61.3073 24.4908H57.0662C57.4299 25.4954 58.3373 26.077 59.6714 26.077C60.5004 26.077 61.1255 25.9031 61.7312 25.5747C62.0136 25.4204 62.2966 25.3045 62.5795 25.3045C63.0222 25.3025 63.345 25.5921 63.345 26.2488ZM56.8628 23.3124L57.7311 23.2542C58.9828 23.177 59.4879 22.7329 59.4879 22.1143C59.4879 21.593 59.1243 21.1869 58.4783 21.1869C57.5316 21.1869 56.8628 22.0952 56.8628 23.3124ZM77.8044 28.3738C77.8044 29.456 76.351 29.7648 74.4726 29.7648C72.5948 29.7648 71.3225 29.456 71.3225 28.4319C71.3225 27.9296 71.6252 27.7361 71.7647 27.5431C71.9855 27.2534 71.9855 27.0218 71.9855 26.7707V24.935C71.9855 23.0226 71.6828 22.4818 71.0371 22.4818C70.4291 22.4818 70.1276 22.9644 70.1078 24.5871V26.7707C70.1078 27.0218 70.1078 27.2534 70.3292 27.5431C70.4706 27.7361 70.7708 27.9296 70.7708 28.4319C70.7708 29.456 69.4998 29.7648 67.6207 29.7648C65.7417 29.7648 64.2889 29.456 64.2889 28.3738C64.2889 27.8328 64.6524 27.6399 64.8745 27.4659C65.1375 27.2545 65.1375 27.0604 65.1375 26.7707V23.0998C65.1375 22.6557 64.9551 22.4622 64.7734 22.3268C64.4911 22.1153 64.2287 21.8631 64.2287 21.4386C64.2287 21.0907 64.39 20.8199 64.7734 20.5688C65.8038 19.8736 67.8025 19.4675 68.7529 19.4675C70.0239 19.4675 70.1059 20.1823 70.1059 21.5734C70.7516 20.3949 71.9433 19.3903 73.7404 19.3903C75.7999 19.3903 76.9513 20.7428 76.9513 22.9644V26.7712C76.9513 27.0609 76.9513 27.2539 77.2137 27.4665C77.4409 27.6399 77.8044 27.8328 77.8044 28.3738Z" fill="white"/>
</g>
</g>
<defs>
<clipPath id="clip0_103_238">
<rect width="80" height="32" fill="white"/>
</clipPath>
</defs>
</svg>
