<svg width="165" height="32" viewBox="0 0 165 32" fill="none" xmlns="http://www.w3.org/2000/svg">
<g clip-path="url(#clip0_103_220)">
<mask id="mask0_103_220" style="mask-type:luminance" maskUnits="userSpaceOnUse" x="0" y="0" width="165" height="32">
<path d="M165 0H0V32H165V0Z" fill="white"/>
</mask>
<g mask="url(#mask0_103_220)">
<path d="M41.5156 7.35099V10.0564H45.9661V20.8778H49.0486V10.0564H53.4797V7.35099H41.5156ZM58.1089 16.5033V18.0382H57.3382V16.5033L55.2189 11.1884H51.7319L56.1822 20.3022V22.1249L52.8492 22.0866V24.7729L57.6273 24.9071C58.6868 24.9454 59.2841 24.3699 59.2841 23.2953V20.3022L63.7345 11.1884H60.2281L58.1089 16.5033ZM64.6897 24.5234H67.7915V20.283L67.1942 18.5561H67.9841C68.485 19.8418 69.3906 21.0697 71.818 21.0697C74.6308 21.0697 76.0179 18.7865 76.0179 16.0427C76.0179 13.299 74.6308 10.9966 71.818 10.9966C69.3906 10.9966 68.485 12.2245 67.9841 13.5101H67.1942L67.7915 11.7833V11.1884H64.6897V24.5234ZM67.7915 16.0427C67.7915 14.3926 68.6969 13.702 70.3539 13.702C72.0107 13.702 72.9354 14.3926 72.9354 16.0427C72.9354 17.6928 72.0107 18.3644 70.3539 18.3644C68.6969 18.3644 67.7915 17.6928 67.7915 16.0427ZM76.9852 15.9084C76.9852 18.6521 78.6998 21.0697 82.4374 21.0697C85.8089 21.0697 87.4272 18.8632 87.6009 17.4625H84.5182C84.3255 18.1917 83.5163 18.5753 82.4374 18.5753C80.6842 18.5753 79.8943 17.7887 79.8943 16.6759H87.2535V15.7165C87.2535 12.7809 85.1347 10.9966 82.1099 10.9966C79.0851 10.9966 76.9852 12.8385 76.9852 15.9084ZM79.8943 14.9491C79.8943 14.2199 80.3953 13.5101 82.1099 13.5101C83.8245 13.5101 84.364 14.2199 84.364 14.9491H79.8943ZM106.869 17.1555C106.869 14.3351 103.035 13.2606 100.531 12.4164C98.3537 11.6873 98.0454 11.457 98.0454 10.8431C98.0454 10.1715 98.8938 9.86455 100.281 9.86455C101.957 9.86455 103.228 10.3058 103.228 11.9559H106.311C106.311 9.26969 104.442 7.15914 100.281 7.15914C96.774 7.15914 94.9443 8.42546 94.9443 10.7279C94.9443 13.3758 97.2751 14.1432 100.146 15.1026C102.13 15.7741 103.787 16.2154 103.787 17.1939C103.787 17.923 103.132 18.3644 101.147 18.3644C98.45 18.3644 97.4297 17.712 97.4297 15.6589H94.3277C94.3277 19.0742 96.1574 21.0697 101.051 21.0697C105.232 21.0697 106.869 19.4772 106.869 17.1555ZM112.865 13.8937H116.062V11.1884H112.865V8.40629L109.763 9.36569V11.1884H107.451V13.8937H109.763V19.4389C109.763 20.4941 110.34 21.1081 111.4 21.0697L116.448 20.8778V18.1725L112.865 18.3644V13.8937ZM122.884 18.3644C121.401 18.3644 120.899 17.6928 120.899 15.9276V11.1884H117.797V16.4265C117.797 19.4197 119.301 21.0697 121.786 21.0697C123.867 21.0697 125.081 19.7074 125.466 17.9806H126.236L125.659 19.7074V20.8778H128.761V11.1884H125.659V14.7764C125.659 17.5009 124.56 18.3644 122.884 18.3644ZM141.239 6.77539H138.156V11.7833L138.734 13.5101H137.963C137.462 12.2245 136.538 10.9966 134.129 10.9966C131.316 10.9966 129.91 13.2798 129.91 16.0235C129.91 18.7673 131.316 21.0697 134.129 21.0697C136.538 21.0697 137.462 19.8418 137.963 18.5561H138.734L138.156 20.283V20.8778H141.239V6.77539ZM138.156 16.0235C138.156 17.6545 137.231 18.3644 135.574 18.3644C133.918 18.3644 133.012 17.6545 133.012 16.0235C133.012 14.3926 133.918 13.702 135.574 13.702C137.231 13.702 138.156 14.3926 138.156 16.0235ZM146.804 10.2291C147.942 10.2291 148.655 9.69183 148.655 8.69412C148.655 7.71555 147.942 7.15914 146.804 7.15914C145.668 7.15914 144.994 7.71555 144.994 8.69412C144.994 9.69183 145.668 10.2291 146.804 10.2291ZM151.312 20.8778V18.1725H148.558V12.6082C148.558 11.5338 147.96 10.939 146.863 10.9966L143.202 11.1884V13.8937L145.572 13.7786V18.1725H142.817V20.8778H151.312ZM151.885 16.0235C151.885 19.4197 154.313 21.0697 157.376 21.0697C160.419 21.0697 162.847 19.4197 162.847 16.0235C162.847 12.6466 160.419 10.9966 157.376 10.9966C154.313 10.9966 151.885 12.6466 151.885 16.0235ZM154.987 16.0235C154.987 14.4118 155.911 13.702 157.376 13.702C158.82 13.702 159.765 14.4118 159.765 16.0235C159.765 17.6545 158.82 18.3644 157.376 18.3644C155.911 18.3644 154.987 17.6545 154.987 16.0235Z" fill="#A7A7A7"/>
<g filter="url(#filter0_d_103_220)">
<path d="M0.163736 7.1292C0.311542 3.4851 3.1568 0.65233 6.8158 0.502963C9.09028 0.410117 11.9619 0.337891 15.3924 0.337891C18.8548 0.337891 21.748 0.411467 24.0324 0.505562C27.6624 0.655082 30.4819 3.45115 30.6262 7.06652C30.7159 9.31482 30.7849 12.2005 30.7849 15.7598C30.7849 19.3757 30.7137 22.2965 30.6219 24.5598C30.4773 28.1265 27.72 30.8786 24.1387 31.0224C21.8953 31.1125 18.998 31.1816 15.3924 31.1816C11.8209 31.1816 8.94431 31.1138 6.70985 31.025C3.09964 30.8814 0.316167 28.0922 0.168088 24.4968C0.0738211 22.2081 0 19.289 0 15.7598C0 12.285 0.0715586 9.40182 0.163736 7.1292Z" fill="#A7A7A7"/>
</g>
<path fill-rule="evenodd" clip-rule="evenodd" d="M14.4965 14.7491C12.745 15.2278 11.4515 16.8341 11.4515 18.7512C11.4515 21.0479 13.3081 22.8986 15.5845 22.8986C17.4892 22.8986 19.0999 21.6032 19.5753 19.8349H15.5851L15.5845 18.7512H14.4965V14.7491ZM15.5845 18.7512H14.4965C14.4965 19.3496 14.9842 19.8349 15.5851 19.8349L15.5845 18.7512ZM16.6727 17.6676V13.5201C16.6727 12.9216 16.1855 12.4365 15.5845 12.4365C12.0938 12.4365 9.27539 15.2698 9.27539 18.7512C9.27539 22.2326 12.0938 25.0659 15.5845 25.0659C19.0752 25.0659 21.8938 22.2326 21.8938 18.7512C21.8938 18.1527 21.4066 17.6676 20.8057 17.6676H16.6727Z" fill="white"/>
<path fill-rule="evenodd" clip-rule="evenodd" d="M8.15332 8.31068C8.15332 7.7122 8.64047 7.22705 9.24136 7.22705H21.6455C22.2465 7.22705 22.7336 7.7122 22.7336 8.31068V13.2165C22.7336 13.8149 22.2465 14.3001 21.6455 14.3001H9.24136C8.64047 14.3001 8.15332 13.8149 8.15332 13.2165V8.31068ZM10.3295 9.39428V12.1328H20.5575V9.39428H10.3295Z" fill="white"/>
</g>
</g>
<defs>
<filter id="filter0_d_103_220" x="0" y="0.337891" width="31.6477" height="31.7065" filterUnits="userSpaceOnUse" color-interpolation-filters="sRGB">
<feFlood flood-opacity="0" result="BackgroundImageFix"/>
<feColorMatrix in="SourceAlpha" type="matrix" values="0 0 0 0 0 0 0 0 0 0 0 0 0 0 0 0 0 0 127 0" result="hardAlpha"/>
<feOffset dx="0.431383" dy="0.431383"/>
<feGaussianBlur stdDeviation="0.215692"/>
<feComposite in2="hardAlpha" operator="out"/>
<feColorMatrix type="matrix" values="0 0 0 0 1 0 0 0 0 1 0 0 0 0 1 0 0 0 0.2 0"/>
<feBlend mode="normal" in2="BackgroundImageFix" result="effect1_dropShadow_103_220"/>
<feBlend mode="normal" in="SourceGraphic" in2="effect1_dropShadow_103_220" result="shape"/>
</filter>
<clipPath id="clip0_103_220">
<rect width="165" height="32" fill="white"/>
</clipPath>
</defs>
</svg>
